<svg width="512.002" height="512.002" xmlns="http://www.w3.org/2000/svg">

 <g>
  <title>background</title>
  <rect fill="none" id="canvas_background" height="402" width="582" y="-1" x="-1"/>
 </g>
 <g>
  <title>Layer 1</title>
  <g id="svg_4"/>
  <g id="svg_5"/>
  <g id="svg_6"/>
  <g id="svg_7"/>
  <g id="svg_8"/>
  <g id="svg_9"/>
  <g id="svg_10"/>
  <g id="svg_11"/>
  <g id="svg_12"/>
  <g id="svg_13"/>
  <g id="svg_14"/>
  <g id="svg_15"/>
  <g id="svg_16"/>
  <g id="svg_17"/>
  <g id="svg_18"/>
  <g transform="matrix(0.11111111773384952,0,0,0.11111111773384952,0,0) " id="svg_27"/>
  <g transform="matrix(0.11111111773384952,0,0,0.11111111773384952,0,0) " id="svg_28"/>
  <g transform="matrix(0.11111111773384952,0,0,0.11111111773384952,0,0) " id="svg_29"/>
  <g transform="matrix(0.11111111773384952,0,0,0.11111111773384952,0,0) " id="svg_30"/>
  <g transform="matrix(0.11111111773384952,0,0,0.11111111773384952,0,0) " id="svg_31"/>
  <g transform="matrix(0.11111111773384952,0,0,0.11111111773384952,0,0) " id="svg_32"/>
  <g transform="matrix(0.11111111773384952,0,0,0.11111111773384952,0,0) " id="svg_33"/>
  <g transform="matrix(0.11111111773384952,0,0,0.11111111773384952,0,0) " id="svg_34"/>
  <g transform="matrix(0.11111111773384952,0,0,0.11111111773384952,0,0) " id="svg_35"/>
  <g transform="matrix(0.11111111773384952,0,0,0.11111111773384952,0,0) " id="svg_36"/>
  <g transform="matrix(0.11111111773384952,0,0,0.11111111773384952,0,0) " id="svg_37"/>
  <g transform="matrix(0.11111111773384952,0,0,0.11111111773384952,0,0) " id="svg_38"/>
  <g transform="matrix(0.11111111773384952,0,0,0.11111111773384952,0,0) " id="svg_39"/>
  <g transform="matrix(0.11111111773384952,0,0,0.11111111773384952,0,0) " id="svg_40"/>
  <g transform="matrix(0.11111111773384952,0,0,0.11111111773384952,0,0) " id="svg_41"/>
  <path id="svg_46" stroke-opacity="null" stroke-width="null" stroke="null" fill="none"/>
  <g stroke="null" id="svg_48">
   <path stroke="null" id="svg_26" d="m241.791104,260.056182c0.827566,0.14211 1.659804,0.2605 2.505678,0.2605c8.290119,0 15.033644,-6.743525 15.033644,-15.033623l0,-27.561568c0,-0.964031 -0.552965,-1.839968 -1.419282,-2.255981c-0.871011,-0.416013 -1.898698,-0.298554 -2.652481,0.298554l-7.993426,6.394233l-6.208424,-6.208424c-0.97883,-0.97883 -2.564408,-0.97883 -3.543005,0l-6.209355,6.209355l-7.99203,-6.395396c-0.75613,-0.602054 -1.786164,-0.719493 -2.652481,-0.298554c-0.866317,0.416013 -1.419282,1.29195 -1.419282,2.255981l0,27.561568c0,8.290098 6.743525,15.033623 15.033644,15.033623c0.85784,0 1.686568,-0.114394 2.505678,-0.253227l5.011123,-0.00704zm12.528178,-37.122961l0,22.349838c0,5.114017 -3.864814,9.299011 -8.82097,9.901045c2.341708,-2.651551 3.809847,-6.093312 3.809847,-9.901045c0,-5.204923 -2.254586,-10.018737 -6.101303,-13.458151l11.112426,-8.891687zm-15.033623,-1.668725l4.042864,4.042864l-4.044978,3.235995l-4.042399,-3.234346l4.044513,-4.044513zm-5.011356,34.041063c-5.527451,0 -10.0225,-4.497396 -10.0225,-10.0225l0,-22.349838l15.116771,12.097387c3.131939,2.505678 4.927975,6.23965 4.927975,10.252451c0.000233,5.525104 -4.494584,10.0225 -10.022246,10.0225z"/>
   <path stroke="null" id="svg_44" d="m227.545616,264.070056l22.48095,-0.07445l0,3.349812l-23.448684,0" opacity="0.5" stroke-opacity="null" stroke-width="null" fill="none"/>
   <path stroke="null" id="svg_45" d="m227.173415,263.697855" opacity="0.5" stroke-opacity="null" stroke-width="null" fill="none"/>
   <line stroke="null" stroke-linecap="null" stroke-linejoin="null" id="svg_43" y2="271.514083" x2="251.738703" y1="266.675466" x1="228.290019" stroke-opacity="null" stroke-width="null" fill="none"/>
   <rect stroke="null" id="svg_47" height="4.838622" width="26.426295" y="262.953452" x="226.801213" stroke-opacity="null" stroke-width="null" fill="#000000"/>
  </g>
 </g>
</svg>